HIERARCHY
ROOT Hips
{
	OFFSET 0.000000 0.000000 0.000000
	CHANNELS 6 Xposition Yposition Zposition Xrotation Yrotation Zrotation
	JOINT LeftUpLeg_virtual
	{
		OFFSET 0.000000 0.000000 0.000000
		CHANNELS 3 Xrotation Yrotation Zrotation
		JOINT LeftUpLeg
		{
			OFFSET 10.205400 -3.823500 0.155100
			CHANNELS 3 Xrotation Yrotation Zrotation
			JOINT LeftLeg
			{
				OFFSET 0.708757 -12.982077 0.567790
				CHANNELS 3 Xrotation Yrotation Zrotation
				JOINT LeftFoot
				{
					OFFSET -0.708756 -10.717838 -2.184338
					CHANNELS 3 Xrotation Yrotation Zrotation
					JOINT LeftToeBase
					{
						OFFSET 0.108149 -7.191104 7.560241
						CHANNELS 3 Xrotation Yrotation Zrotation
						JOINT LeftToe_End
						{
							OFFSET 0.070230 0.081724 4.490308
							CHANNELS 3 Xrotation Yrotation Zrotation
							End Site
							{
								OFFSET 0 0 0
							}
						}
					}
				}
			}
		}
	}
	JOINT RightUpLeg_virtual
	{
		OFFSET 0.000000 0.000000 0.000000
		CHANNELS 3 Xrotation Yrotation Zrotation
		JOINT RightUpLeg
		{
			OFFSET -10.205400 -3.823500 0.005500
			CHANNELS 3 Xrotation Yrotation Zrotation
			JOINT RightLeg
			{
				OFFSET -0.708756 -12.982134 0.610632
				CHANNELS 3 Xrotation Yrotation Zrotation
				JOINT RightFoot
				{
					OFFSET 0.708754 -10.717769 -1.945823
					CHANNELS 3 Xrotation Yrotation Zrotation
					JOINT RightToeBase
					{
						OFFSET -0.108140 -7.191069 7.372968
						CHANNELS 3 Xrotation Yrotation Zrotation
						JOINT RightToe_End
						{
							OFFSET -0.070227 0.081735 4.479403
							CHANNELS 3 Xrotation Yrotation Zrotation
							End Site
							{
								OFFSET 0 0 0
							}
						}
					}
				}
			}
		}
	}
	JOINT Spine_virtual
	{
		OFFSET 0.000000 0.000000 0.000000
		CHANNELS 3 Xrotation Yrotation Zrotation
		JOINT Spine
		{
			OFFSET 0.000000 6.876099 0.125700
			CHANNELS 3 Xrotation Yrotation Zrotation
			JOINT Spine1
			{
				OFFSET 0.000000 5.730043 0.104720
				CHANNELS 3 Xrotation Yrotation Zrotation
				JOINT Spine1_split
				{
					OFFSET 0.000000 5.730043 0.104720
					CHANNELS 3 Xrotation Yrotation Zrotation
					JOINT Spine2
					{
						OFFSET 0.000000 5.730043 0.104720
						CHANNELS 3 Xrotation Yrotation Zrotation
						JOINT Neck_virtual
						{
							OFFSET 0.000000 0.000000 0.000000
							CHANNELS 3 Xrotation Yrotation Zrotation
							JOINT Neck
							{
								OFFSET 0.000000 10.314075 0.188496
								CHANNELS 3 Xrotation Yrotation Zrotation
								JOINT Head
								{
									OFFSET 0.000000 7.643700 -2.377400
									CHANNELS 3 Xrotation Yrotation Zrotation
									JOINT HeadTop_End
									{
										OFFSET 0.000000 43.788605 -13.619600
										CHANNELS 3 Xrotation Yrotation Zrotation
										End Site
										{
											OFFSET 0 0 0
										}
									}
								}
							}
						}
						JOINT LeftShoulder_virtual
						{
							OFFSET 0.000000 0.000000 0.000000
							CHANNELS 3 Xrotation Yrotation Zrotation
							JOINT LeftShoulder
							{
								OFFSET 2.196100 4.412489 0.087492
								CHANNELS 3 Xrotation Yrotation Zrotation
								JOINT LeftShoulder_split
								{
									OFFSET 2.196100 4.412489 0.087492
									CHANNELS 3 Xrotation Yrotation Zrotation
									JOINT LeftArm
									{
										OFFSET 8.771219 -2.981674 -0.026999
										CHANNELS 3 Xrotation Yrotation Zrotation
										JOINT LeftForeArm
										{
											OFFSET 8.512804 0.000000 -0.000000
											CHANNELS 3 Xrotation Yrotation Zrotation
											JOINT LeftHand
											{
												OFFSET 18.484802 0.000000 -0.000000
												CHANNELS 3 Xrotation Yrotation Zrotation
												End Site
												{
													OFFSET 0 0 0
												}
											}
										}
									}
								}
							}
						}
						JOINT RightShoulder_virtual
						{
							OFFSET 0.000000 0.000000 0.000000
							CHANNELS 3 Xrotation Yrotation Zrotation
							JOINT RightShoulder
							{
								OFFSET -2.196100 4.412496 0.070690
								CHANNELS 3 Xrotation Yrotation Zrotation
								JOINT RightShoulder_split
								{
									OFFSET -2.196100 4.412496 0.070690
									CHANNELS 3 Xrotation Yrotation Zrotation
									JOINT RightArm
									{
										OFFSET -8.771282 -2.981682 -0.094208
										CHANNELS 3 Xrotation Yrotation Zrotation
										JOINT RightForeArm
										{
											OFFSET -8.494598 0.000000 0.000000
											CHANNELS 3 Xrotation Yrotation Zrotation
											JOINT RightHand
											{
												OFFSET -18.483803 0.000000 0.000001
												CHANNELS 3 Xrotation Yrotation Zrotation
												End Site
												{
													OFFSET 0 0 0
												}
											}
										}
									}
								}
							}
						}
					}
				}
			}
		}
	}
}
MOTION
Frames: 4
Frame Time: 0.03333333
2.754746 18.949467 7.288571 0.000000 0.000000 0.000000 2.007019 13.307464 1.183376 -91.580119 -17.733224 10.954862 86.565763 -3.773853 0.841582 11.328785 -6.731422 -19.019212 -5.192643 -0.057780 -4.725936 0.000000 0.000000 0.000000 1.301471 14.953950 1.333269 -90.454756 16.296796 -12.962246 87.803789 3.787978 -0.663347 10.405466 -5.617177 23.931166 0.978688 -0.887740 -7.575231 0.000000 0.000000 0.000000 1.914764 17.952548 0.857532 9.201583 -0.746976 0.657473 0.142259 -2.770540 1.036090 0.269197 -0.562579 0.059068 0.000000 0.000000 0.000000 -1.008054 0.205206 1.436484 1.623844 5.702536 -0.309214 -17.268989 -31.115108 -23.422947 0.000000 0.000000 0.000000 -2.768396 -2.159430 0.165986 2.439814 -20.294980 -7.598568 -0.347740 0.292774 -2.674663 -6.838939 -8.379484 -65.959601 -3.473147 -56.141932 2.156301 0.000000 0.000000 0.000000 -1.350875 -1.508064 1.600782 0.398820 -3.808428 11.099576 -0.006788 1.406182 -1.101951 0.955188 39.038008 63.567198 -12.458250 50.195012 10.136633 0.000000 0.000000 0.000000 
2.763501 18.990789 7.288588 0.000000 0.000000 0.000000 2.239021 13.252185 1.141818 -91.893379 -17.959410 10.896328 86.383527 -3.808540 0.829988 11.838998 -6.871470 -19.084670 -5.068472 -0.034722 -4.793851 0.000000 0.000000 0.000000 1.508064 14.922567 1.350861 -90.376544 16.093698 -12.974186 87.346146 3.687026 -0.536452 10.692420 -5.838850 23.746744 1.295049 -0.857065 -7.454161 0.000000 0.000000 0.000000 2.052898 17.711534 0.808249 9.149443 -0.739660 0.561897 0.229472 -2.759657 0.928592 0.332423 -0.451025 0.034343 0.000000 0.000000 0.000000 -0.808134 0.178247 1.426083 1.282116 5.914656 -0.143235 -16.006067 -31.049425 -23.308485 0.000000 0.000000 0.000000 -2.726489 -2.116885 0.161274 2.442480 -20.008814 -7.437140 -0.164416 0.005191 -2.499577 -6.988550 -8.450100 -66.224558 -3.133805 -55.753113 2.123990 0.000000 0.000000 0.000000 -1.255313 -1.528604 1.508425 0.427724 -3.706927 10.815306 0.172469 1.844456 -0.815978 0.650784 39.276279 64.054340 -12.136666 48.841129 9.761291 0.000000 0.000000 0.000000 
2.756995 19.053982 7.279872 0.000000 0.000000 0.000000 2.475836 13.029089 1.127062 -92.168362 -18.154786 10.786546 86.010489 -3.618696 0.742906 12.265964 -6.694282 -18.690787 -4.972263 0.018970 -4.888979 0.000000 0.000000 0.000000 1.631298 14.554962 1.419556 -90.400190 15.862734 -13.015864 87.034594 3.761761 -0.538485 11.165791 -6.065163 24.211759 0.791446 -0.732668 -7.886732 0.000000 0.000000 0.000000 2.175569 17.133941 0.791380 9.288085 -0.588122 0.275127 0.532365 -2.752913 0.800100 0.309226 -0.386582 0.020349 0.000000 0.000000 0.000000 -0.446761 0.187509 1.321335 1.210524 6.183235 0.383656 -14.155886 -30.465615 -22.339131 0.000000 0.000000 0.000000 -2.414230 -2.076807 0.104970 2.552353 -19.356174 -6.709250 0.215134 -0.150675 -1.947122 -7.810822 -8.566073 -67.325687 -2.564556 -55.218815 2.128634 0.000000 0.000000 0.000000 -0.963505 -1.533701 1.339643 0.483168 -3.714687 9.906618 0.380985 1.931335 -0.116266 -0.560827 39.452931 65.479596 -12.152613 47.427358 9.679218 0.000000 0.000000 0.000000 
2.731959 19.120762 7.258744 0.000000 0.000000 0.000000 2.686645 12.675902 1.146129 -92.328380 -18.237502 10.630288 85.577100 -3.200615 0.581924 12.434070 -6.211685 -17.892527 -4.568119 0.083933 -5.086493 0.000000 0.000000 0.000000 1.719523 14.025533 1.534529 -90.397759 15.723201 -13.024413 86.757705 3.909175 -0.655167 11.350093 -6.445521 24.940040 0.140566 -0.546492 -8.777065 0.000000 0.000000 0.000000 2.300077 16.392654 0.823691 9.593566 -0.324181 -0.136871 1.037816 -2.741729 0.681401 0.224048 -0.365176 0.011842 0.000000 0.000000 0.000000 0.068962 0.240946 1.144395 1.407004 6.504016 1.085777 -12.223981 -29.299941 -20.866540 0.000000 0.000000 0.000000 -1.877291 -2.022375 0.028137 2.738914 -18.388047 -5.540550 0.488551 -0.274861 -1.124438 -9.164781 -8.898596 -68.887697 -1.977965 -54.643815 2.000671 0.000000 0.000000 0.000000 -0.509881 -1.529054 1.129827 0.588813 -3.903266 8.484407 0.686656 1.521399 0.622094 -2.478885 39.386248 67.619057 -12.563619 46.308829 9.933023 0.000000 0.000000 0.000000 
